<?xml version="1.0" encoding="utf-8"?>
<!-- Generator: Adobe Illustrator 25.0.0, SVG Export Plug-In . SVG Version: 6.00 Build 0)  -->
<svg version="1.1" id="Layer_1" xmlns="http://www.w3.org/2000/svg" xmlns:xlink="http://www.w3.org/1999/xlink" x="0px" y="0px"
	 viewBox="0 0 47.8 81.5" style="enable-background:new 0 0 47.8 81.5;" xml:space="preserve">
<style type="text/css">
	.st0{fill:#1A1818;}
</style>
<g transform="translate(-430.675 -680.629)">
	<g>
		<path class="st0" d="M442.5,724.9c-3.2,0-5.9-0.7-8-2.1c-2.5-1.7-3.9-4.3-3.9-7.5c0-9,10.6-20.7,23.7-26.1
			c8.3-3.4,15.9-3.6,20.3-0.6c2.5,1.7,3.8,4.3,3.8,7.5c0,9-10.6,20.7-23.7,26.1C450.4,724,446.2,724.9,442.5,724.9z M466.7,687.7
			c-3.5,0-7.6,0.9-11.8,2.6c-12.6,5.2-22.9,16.4-22.9,24.9c0,2.8,1.1,5,3.3,6.5c4.1,2.8,11.3,2.5,19.1-0.8
			c12.6-5.2,22.9-16.4,22.9-24.9c0-2.8-1.1-5-3.3-6.5C472.1,688.4,469.6,687.7,466.7,687.7z"/>
	</g>
	<g>
		<path class="st0" d="M442.5,740.9c-3.2,0-5.9-0.7-8-2.1c-2.5-1.7-3.9-4.3-3.9-7.5c0-9,10.6-20.7,23.7-26.1
			c8.3-3.4,15.9-3.6,20.3-0.6c2.5,1.7,3.8,4.3,3.8,7.5c0,9-10.6,20.7-23.7,26.1C450.4,740,446.2,740.9,442.5,740.9z M466.7,703.7
			c-3.5,0-7.6,0.9-11.8,2.6c-12.6,5.2-22.9,16.4-22.9,24.9c0,2.8,1.1,5,3.3,6.5c4.1,2.8,11.3,2.5,19.1-0.8
			c12.6-5.2,22.9-16.4,22.9-24.9c0-2.8-1.1-5-3.3-6.5C472.1,704.4,469.6,703.7,466.7,703.7z"/>
	</g>
	<g>
		<path class="st0" d="M442.5,756.3c-3.2,0-5.9-0.7-8-2.1c-2.5-1.7-3.9-4.3-3.9-7.5c0-9,10.6-20.7,23.7-26.1
			c8.2-3.4,15.8-3.7,20.3-0.7c2.6,1.7,3.9,4.3,3.9,7.6c0,9-10.6,20.7-23.7,26.1C450.4,755.4,446.2,756.3,442.5,756.3z M466.7,719.1
			c-3.5,0-7.6,0.9-11.8,2.7c-12.6,5.2-22.9,16.4-22.9,24.9c0,2.8,1.1,5,3.3,6.5c4.1,2.8,11.3,2.5,19.1-0.8
			c12.6-5.2,22.9-16.4,22.9-24.9c0-2.8-1.2-5.1-3.3-6.5C472.1,719.7,469.6,719.1,466.7,719.1z"/>
	</g>
</g>
</svg>
