<?xml version="1.0" encoding="utf-8"?>
<!-- Generator: Adobe Illustrator 25.0.0, SVG Export Plug-In . SVG Version: 6.00 Build 0)  -->
<svg version="1.1" id="Layer_1" xmlns="http://www.w3.org/2000/svg" xmlns:xlink="http://www.w3.org/1999/xlink" x="0px" y="0px"
	 viewBox="0 0 114.5 117.6" style="enable-background:new 0 0 114.5 117.6;" xml:space="preserve">
<style type="text/css">
	.st0{fill:#161518;}
</style>
<g>
	<polygon class="st0" points="114.5,58.5 60.6,58.5 110,87.1 109.2,88.4 59.8,59.9 88.3,109.2 87,110 58.5,60.6 58.5,117.6 
		57,117.6 57,60.6 29.5,108.2 28.2,107.5 55.8,59.8 8.1,87.3 7.4,86 55,58.5 0,58.5 0,57 55,57 7.4,29.6 8.1,28.2 55.8,55.7 
		28.2,8.1 29.5,7.4 57,55 57,0 58.5,0 58.5,55 87,5.6 88.3,6.4 59.8,55.7 109.2,27.2 110,28.5 60.6,57 114.5,57 	"/>
</g>
</svg>
