<?xml version="1.0" encoding="utf-8"?>
<!-- Generator: Adobe Illustrator 25.0.0, SVG Export Plug-In . SVG Version: 6.00 Build 0)  -->
<svg version="1.1" id="Layer_1" xmlns="http://www.w3.org/2000/svg" xmlns:xlink="http://www.w3.org/1999/xlink" x="0px" y="0px"
	 viewBox="0 0 190.6 61.4" style="enable-background:new 0 0 190.6 61.4;" xml:space="preserve">
<style type="text/css">
	.st0{fill:#1A1818;}
</style>
<g transform="translate(0.109 0.151)">
	<g>
		<path class="st0" d="M174.2,12.5l-1.3,1.8l14.4,21.2h-15.5c-7.5,0-14.2-0.6-19.9-1.9C146,18,131.4,1.3,124.8,0
			c-2.4-0.5-4.5,0.5-5.6,2.9c-1.3,2.7-1.3,6.5,0.2,10.6c1.3,3.7,5.1,10.7,15.2,16.5c4.7,2.7,10.2,4.7,16.4,6c1.3,3.8,2.1,7.7,2,10.9
			c-0.4,8-6.4,12.1-18.1,12.1c-9.3,0-17.2-2.9-23.7-7.5c1-2.4,1.5-5,1.7-7c1.5-14.9-7.4-35.4-17.4-39.6C92,3.4,90.2,5,89.2,6.5
			c-2.1,3.4-1.9,10.5,0.6,18.4c3,9.6,9.3,20.2,18.6,27.5c-2.7,4.3-7.1,6.5-13.3,6.5c-6.5,0-12.2-2.8-17-7.2c1-2.4,1.5-5.4,1.5-9.1
			c0-7.4-2.4-16.6-6.6-25C69.2,9.8,64.8,4.8,61.9,4.8c-1.2,0-2.1,0.8-2.8,2.2c-0.5,1.3-0.8,2.9-0.8,5c0,10.2,6.3,29.1,17.4,40.5
			c-2.5,4.3-7.2,6.6-13.9,6.6c-10.7,0-19.1-5.7-25.2-12.9c0.2-0.9,0.4-1.7,0.4-2.6c1.7-12-1.2-27.3-9-32.1c-2.7-1.7-4.2-0.6-4.9,0.5
			c-1.6,2.3-1.5,7.4,0.4,13.8c1.7,5.9,5.4,14.1,11.1,21.2c-1.9,7.7-5.7,12-10.6,12c-14.8,0-22.8-19-22.8-19.3l-1.5,1.3
			c0.1,0.3,8.5,20.6,24.4,20.6c5.5,0,9.8-4.9,12.1-12.9c6.3,7.3,14.9,12.9,25.8,12.9c4.7,0,11.7-1.3,15.4-7.7
			c5.1,4.6,11.1,7.7,18,7.7c8,0,12.5-3.6,14.9-7.9c6.7,4.9,14.9,7.9,24.7,7.9c8.7,0,19.2-2.6,19.8-14.6c0.2-3.3-0.4-6.9-1.7-10.6
			c5.8,1.1,12.1,1.7,18.9,1.7h14.7L173,55.8l1.2,1.9l16.4-21.1L174.2,12.5z M120.9,12.2c-1.1-3.1-1.3-6-0.3-7.9
			c0.6-1.3,1.7-1.9,3-1.9c0.3,0,0.6,0,0.9,0.1c5.9,1.1,19.1,16.4,25.2,30.7C132.9,29,123.8,20.4,120.9,12.2z M35.4,43
			c-0.1,0.4-0.1,0.9-0.2,1.3c-5.2-6.6-8.5-14.2-10-19.5c-1.7-5.9-1.6-9.7-0.7-11c0.3-0.4,0.7-0.5,1.1-0.5c0.6,0,1.3,0.3,1.9,0.6
			C34.4,18,36.9,31.9,35.4,43z M76.7,50.4C65.7,39.2,60.1,20.2,60.1,12c0-1.5,0.2-2.8,0.5-3.6c0.3-0.6,0.7-1,1.3-1
			c5,0,16.1,20.2,16.1,35.4C78,45.7,77.5,48.3,76.7,50.4z M109.5,50.3c-9-7-15-17.1-18-26.4c-2.2-6.9-2.5-13-0.9-15.7
			C91.2,7.3,92,6.7,93,6.7c0.5,0,1.3,0.1,2,0.5c9.3,4,17.6,22.9,16.2,36.8C110.9,46.5,110.3,48.5,109.5,50.3z"/>
	</g>
</g>
</svg>
